<svg width="222" height="125" viewBox="0 0 222 125" fill="none" xmlns="http://www.w3.org/2000/svg">
<g clip-path="url(#clip0_7479_51433)">
<path d="M211.776 67.3109V67.1401C206.51 55.1813 186.334 47.4253 168.039 35.6032C164.859 33.5873 160.619 34.5098 158.601 37.7216L158.567 37.7558C156.755 41.0017 157.678 45.0677 160.721 47.2202C161.029 47.4594 165.646 51.0129 170.707 54.6688C172.827 56.2064 171.733 59.5548 169.134 59.5207L147.077 59.4523C148.377 60.8874 149.3 62.6983 149.574 64.7483C149.744 66.3884 149.505 67.9601 148.924 69.361C148.411 70.591 149.334 71.9577 150.668 71.9577L157.404 71.9919C158.772 71.9919 159.901 73.1194 159.901 74.4862C159.901 75.8529 158.772 76.9804 157.404 76.9804L134.732 76.9121C135.998 78.3471 136.921 80.158 137.194 82.2081C137.365 83.8481 137.126 85.4199 136.545 86.8207C136.032 88.0508 136.955 89.4175 138.289 89.4175L157.37 89.4517C158.738 89.4517 159.867 90.5792 159.867 91.9459C159.867 93.3126 158.738 94.4402 157.37 94.4402L121.498 94.3377C118.216 94.2693 115.377 96.6611 114.899 99.907C114.522 103.324 117.019 106.399 120.438 106.775C120.644 106.809 120.883 106.809 121.088 106.809L157.302 106.911C158.67 106.911 159.798 108.039 159.798 109.406C159.798 110.772 158.67 111.9 157.302 111.9L133.912 111.832C130.629 111.763 127.791 114.155 127.312 117.401C126.936 120.818 129.432 123.893 132.852 124.269C133.057 124.303 133.296 124.303 133.501 124.303L180.795 124.439C193.105 124.474 204.116 120.203 209.451 113.642C210.203 112.72 211.263 112.105 212.426 112.105H218.171C220.223 112.105 221.864 110.465 221.864 108.415V100.864V100.146V70.7277C221.864 68.8143 220.325 67.2767 218.41 67.2767H211.776V67.3109Z" fill="#357D7D"/>
<path d="M199.841 87.0592C199.841 88.4259 198.713 89.5535 197.345 89.5535C183.564 89.5193 172.416 77.1506 172.45 62.0142C172.45 60.6475 173.579 59.52 174.947 59.52C176.315 59.52 177.443 60.6475 177.443 62.0142C177.409 74.4171 186.334 84.4966 197.379 84.5308C198.747 84.5308 199.841 85.6583 199.841 87.0592Z" fill="#305367"/>
<path d="M1.57226 61.2975H4.7867C5.60741 61.2975 6.29133 60.6141 6.29133 59.7941V56.5823C6.29133 55.7623 5.60741 55.0789 4.7867 55.0789H1.57226C0.75155 55.0789 0.067627 55.7623 0.067627 56.5823V59.7941C0.067627 60.6141 0.75155 61.2975 1.57226 61.2975Z" fill="#305367"/>
<path d="M142.426 42.1289L103.853 42.2314C102.485 42.2314 101.357 41.138 101.357 39.7372C101.357 38.3704 102.451 37.2429 103.853 37.2429L132.099 37.1746C132.133 37.1746 132.168 37.1746 132.202 37.1746C135.416 37.1746 138.186 34.7828 138.596 31.571C138.631 31.366 138.631 31.161 138.631 30.9219C138.631 27.5051 135.827 24.7375 132.407 24.7375L88.4991 24.9083C87.0287 24.9083 86.4131 23.0291 87.6442 22.1749C93.6627 17.9381 100.194 12.9496 100.57 12.6421C103.58 10.5237 104.537 6.45771 102.725 3.21177L102.691 3.17761C101.391 1.12754 99.1683 0 96.9114 0C95.6461 0 94.415 0.341678 93.2524 1.0592C75.0258 12.8129 54.9527 20.5348 49.6865 32.4594V32.6302H41.1032C40.2825 32.6302 39.5986 33.3136 39.5986 34.1336V42.2314C39.5986 43.0514 40.2825 43.7348 41.1032 43.7348H48.5238C49.3445 43.7348 49.9942 44.384 50.0284 45.204L50.2336 53.4043C50.2678 54.2585 49.5839 54.9418 48.729 54.9418H41.1032C40.2825 54.9418 39.5986 55.6252 39.5986 56.4452V64.543C39.5986 65.363 38.9147 66.0464 38.0939 66.0464H30.0236C29.2029 66.0464 28.519 65.363 28.519 64.543V56.4452C28.519 55.6252 27.8351 54.9418 27.0144 54.9418H18.9441C18.1234 54.9418 17.4395 54.2585 17.4395 53.4384V45.1015C17.4395 44.2815 18.1234 43.5981 18.9441 43.5981H26.9118C27.7325 43.5981 28.4164 42.9148 28.4164 42.0947V33.997C28.4164 33.1769 27.7325 32.4936 26.9118 32.4936H18.7731C17.9524 32.4936 17.2685 33.1769 17.2685 33.997V42.0606C17.2685 42.8806 16.5846 43.5639 15.7638 43.5639H7.79614C6.97543 43.5639 6.2915 44.2473 6.2915 45.0673V53.5068C6.2915 54.3268 6.97543 55.0102 7.79614 55.0102H15.8664C16.6871 55.0102 17.3711 55.6935 17.3711 56.5135V64.5771C17.3711 65.3972 18.055 66.0805 18.8757 66.0805H26.946C27.7667 66.0805 28.4506 66.7639 28.4506 67.5839V75.75C28.4506 76.57 29.1345 77.2534 29.9553 77.2534H39.5644H50.0626C50.5414 77.2534 50.9859 77.4926 51.2595 77.8684C56.2521 84.8728 67.571 89.5196 80.3262 89.5196C80.3604 89.5196 80.4288 89.5196 80.463 89.5196L127.585 89.383C127.791 89.383 128.03 89.383 128.235 89.3488C128.269 89.3488 128.303 89.3146 128.338 89.3146C131.689 88.9046 134.117 85.8637 133.775 82.4811C133.33 79.3035 130.595 76.9117 127.38 76.9117C127.312 76.9117 127.278 76.9117 127.209 76.9117L117.258 76.9459L103.922 76.9801C102.554 76.9801 101.425 75.8867 101.425 74.4858C101.425 73.1191 102.52 71.9916 103.922 71.9916L139.999 71.8891C140.204 71.8891 140.443 71.8891 140.648 71.8549C140.682 71.8549 140.717 71.8207 140.751 71.8207C144.102 71.4107 146.53 68.3698 146.154 65.0213C145.709 61.8437 142.974 59.452 139.759 59.452C139.691 59.452 139.657 59.452 139.588 59.452L127.243 59.4861L103.853 59.5545C102.485 59.5545 101.357 58.4611 101.357 57.0602C101.357 55.6935 102.451 54.566 103.853 54.566L142.05 54.4635C142.085 54.4635 142.119 54.4635 142.153 54.4635C145.367 54.4635 148.137 52.0717 148.548 48.86C148.582 48.6549 148.582 48.4499 148.582 48.2108C148.65 44.9307 145.88 42.1289 142.426 42.1289Z" fill="#305367"/>
<path d="M12.3099 72.3335H15.5244C16.3451 72.3335 17.029 71.6501 17.029 70.8301V67.6183C17.029 66.7983 16.3451 66.1149 15.5244 66.1149H12.3099C11.4892 66.1149 10.8053 66.7983 10.8053 67.6183V70.8301C10.7711 71.6501 11.455 72.3335 12.3099 72.3335Z" fill="#305367"/>
</g>
<defs>
<clipPath id="clip0_7479_51433">
<rect width="221.865" height="124.439" fill="white" transform="translate(0.067627)"/>
</clipPath>
</defs>
</svg>
